<svg xmlns="http://www.w3.org/2000/svg" viewBox="0 0 512 512"><path d="M-2083.63-853.64h5104.84v3056.59h-5104.84z" style="fill:#202830;stroke:#f2f2f2;stroke-width:20px"/><path d="M304 592c126.2 0 196.356 0 242.178-45.822S592 430.2 592 304s0-196.356-45.822-242.178S430.2 16 304 16 107.644 16 61.822 61.822 16 177.8 16 304s0 196.356 45.822 242.178S177.8 592 304 592Z" style="fill:#202830;fill-rule:nonzero;stroke:#f2f2f2;stroke-width:47.22px;stroke-linecap:butt;stroke-linejoin:miter;stroke-miterlimit:4" transform="matrix(.78504 0 0 .7932 17.35 14.865)"/><path d="M188.133 374.372c-50.634 5.558-64.49-16.736-68.977-28.796-2.708-6.629-14.437-27.08-24.64-32.544-8.439-4.33-20.468-14.989-.315-15.272 18.941-.3 32.481 16.689 36.984 23.617 16.437 26.466 40.338 27.175 56.948 23.349v-39.881c-43.187-10.281-81.005-36.59-81.005-109.062a87.78 87.78 0 0 1 24.655-61.94c-2.408-5.762-10.816-29.378 2.41-61.056 0 0 20.152-6.078 66.142 23.616 19.24-5.18 39.692-7.777 60.128-7.777a233.6 233.6 0 0 1 60.144 7.777c45.99-29.961 66.143-23.616 66.143-23.616 10.895 26.072 7.116 46.682 4.093 56.365h60.916c11.053 0 20.011 8.959 20.011 20.011V425.07c0 11.037-8.958 19.995-20.011 19.995H208.144c-11.052 0-20.011-8.958-20.011-19.995zm19.256 37.158c0 2.456.645 4.849 1.826 6.959a14.18 14.18 0 0 0 12.312 7.18h217.636c3.748 0 7.337-1.497 9.998-4.142a14.16 14.16 0 0 0 4.14-9.997V162.373a14.17 14.17 0 0 0-4.14-9.998 14.2 14.2 0 0 0-9.998-4.14H221.527a14.17 14.17 0 0 0-9.998 4.14 14.17 14.17 0 0 0-4.14 9.998z" style="fill:#f2f2f2;stroke:#f2f2f2;stroke-width:29.81px;stroke-linecap:butt;stroke-miterlimit:2" transform="matrix(.66312 0 0 .67881 72.003 80.429)"/><path d="M207.389 249.99c-.016.017-.032.017-.063.017v-55.704c.031 0 .047.015.063.031zm0-55.656v-18.468q2.285 1.187 4.534 2.44c14.327 8.046 44.903 8.187 48.525 8.172h.346c3.621.015 34.181-.126 48.524-8.172 9.305-5.227 32.607-16.894 47.77-14.217 28.103 4.96 48.004 45.88 19.113 82.99-27.647 35.535-94.561 36.873-114.4 36.92h-2.361c-9.604-.016-30.198-.346-52.051-4.692v-29.316c12.564-3.417 22.86-12.863 19.365-25.727-3.101-11.399-7.526-22.86-19.365-29.93m116.901-3.117c-20.578 5.746-26.734 20.105-30.733 34.354-4.581 16.359 13.76 27.16 30.733 27.16s30.75-13.793 30.75-30.765-13.572-35.551-30.75-30.75m-69.584 152.339h-30.45c-4.054 0-7.389-3.335-7.39-7.389.001-4.054 3.336-7.389 7.39-7.389h30.45v-7.79c.002-4.072 3.351-7.421 7.423-7.423 4.071.002 7.42 3.352 7.422 7.423v7.79h28.977a7.39 7.39 0 0 1 7.389 7.39c-.001 4.053-3.337 7.388-7.39 7.388h-28.976v9.295h18.718c3.611.003 6.582 2.974 6.585 6.585-.003 3.611-2.974 6.582-6.585 6.585h-18.718v9.335h10.811c2.87 0 5.201 2.33 5.201 5.2s-2.33 5.201-5.201 5.201h-10.81v8.725c-.002 4.072-3.351 7.421-7.423 7.423-4.072-.002-7.421-3.351-7.423-7.423v-8.725H243.05c-2.853-.001-5.2-2.347-5.202-5.2 0-2.87 2.33-5.201 5.202-5.201h11.657v-9.335h-19.15c-3.611-.003-6.581-2.974-6.584-6.585.003-3.611 2.974-6.582 6.585-6.585h19.15zm151.582-50.005c.104-.632.656-1.1 1.297-1.1s1.192.468 1.296 1.1c1.686 7.754 4.822 17.714 8.246 22.482 3.708 5.163 11.794 9.859 17.499 12.024.587.133 1.008.66 1.008 1.262s-.421 1.129-1.008 1.262c-5.705 2.166-13.791 6.862-17.499 12.026-3.424 4.766-6.56 14.727-8.246 22.48a1.32 1.32 0 0 1-1.296 1.095 1.32 1.32 0 0 1-1.297-1.095c-1.686-7.753-4.822-17.714-8.245-22.48-3.709-5.164-11.795-9.86-17.5-12.026a1.294 1.294 0 0 1-1.014-1.261c0-.604.424-1.132 1.014-1.261 5.705-2.167 13.791-6.863 17.5-12.026 3.423-4.768 6.559-14.728 8.245-22.481" style="fill:#f2f2f2;stroke:#f2f2f2;stroke-width:16.39px;stroke-linecap:butt;stroke-miterlimit:2" transform="matrix(.66312 0 0 .67881 67.752 80.429)"/></svg>
