<svg xmlns="http://www.w3.org/2000/svg" viewBox="0 0 512 512"><path d="M188.133 374.372c-50.634 5.558-64.49-16.736-68.977-28.796-2.708-6.629-14.437-27.08-24.64-32.544-8.439-4.33-20.468-14.989-.315-15.272 18.941-.3 32.481 16.689 36.984 23.617 16.437 26.466 40.338 27.175 56.948 23.349v-39.881c-43.187-10.281-81.005-36.59-81.005-109.062a87.75 87.75 0 0 1 24.655-61.94c-2.408-5.762-10.816-29.378 2.41-61.056 0 0 20.152-6.078 66.142 23.616 19.24-5.18 39.692-7.777 60.128-7.777a233.6 233.6 0 0 1 60.144 7.777c45.99-29.961 66.143-23.616 66.143-23.616 10.895 26.072 7.116 46.682 4.093 56.365h60.916c11.053 0 20.011 8.959 20.011 20.011V425.07c0 11.037-8.958 19.995-20.011 19.995H208.144c-11.052 0-20.011-8.958-20.011-19.995zm19.256 37.158c0 2.456.645 4.849 1.826 6.959a14.16 14.16 0 0 0 12.312 7.18h217.636c3.748 0 7.337-1.497 9.998-4.142a14.16 14.16 0 0 0 4.14-9.997V162.373a14.16 14.16 0 0 0-4.14-9.998 14.2 14.2 0 0 0-9.998-4.14H221.527a14.16 14.16 0 0 0-9.998 4.14 14.16 14.16 0 0 0-4.14 9.998z"/><path d="M207.389 249.99c-.016.017-.032.017-.063.017v-55.704c.031 0 .047.015.063.031zm0-55.656v-18.468a176 176 0 0 1 4.534 2.44c14.327 8.046 44.903 8.187 48.525 8.172h.346c3.621.015 34.181-.126 48.524-8.172 9.305-5.227 32.607-16.894 47.77-14.217 28.103 4.96 48.004 45.88 19.113 82.99-27.647 35.535-94.561 36.873-114.4 36.92h-2.361c-9.604-.016-30.198-.346-52.051-4.692v-29.316c12.564-3.417 22.86-12.863 19.365-25.727-3.101-11.399-7.526-22.86-19.365-29.93m57.09 72.157 8.218-11.871a3.66 3.66 0 0 0 .22-3.779 3.65 3.65 0 0 0-3.227-1.952h-16.406a3.662 3.662 0 0 0-3.007 5.747l8.202 11.855a3.61 3.61 0 0 0 2.992 1.575 3.64 3.64 0 0 0 3.007-1.575m59.812-75.274c-20.578 5.746-26.734 20.105-30.733 34.354-4.581 16.359 13.76 27.16 30.733 27.16s30.75-13.793 30.75-30.765-13.572-35.551-30.75-30.75m-69.584 152.339h-30.45a7.39 7.39 0 0 1-7.39-7.389 7.39 7.39 0 0 1 7.39-7.389h30.45v-7.79a7.426 7.426 0 0 1 7.423-7.423 7.426 7.426 0 0 1 7.422 7.423v7.79h28.977a7.39 7.39 0 0 1 7.389 7.39 7.39 7.39 0 0 1-7.39 7.388h-28.976v9.295h18.718a6.59 6.59 0 0 1 6.585 6.585 6.59 6.59 0 0 1-6.585 6.585h-18.718v9.335h10.811c2.87 0 5.201 2.33 5.201 5.2s-2.33 5.201-5.201 5.201h-10.81v8.725a7.426 7.426 0 0 1-7.423 7.423 7.426 7.426 0 0 1-7.423-7.423v-8.725H243.05a5.204 5.204 0 0 1-5.202-5.2c0-2.87 2.33-5.201 5.202-5.201h11.657v-9.335h-19.15a6.59 6.59 0 0 1-6.584-6.585 6.59 6.59 0 0 1 6.585-6.585h19.15zm151.582-50.005a1.314 1.314 0 0 1 2.593 0c1.686 7.754 4.822 17.714 8.246 22.482 3.708 5.163 11.794 9.859 17.499 12.024a1.294 1.294 0 0 1 0 2.524c-5.705 2.166-13.791 6.862-17.499 12.026-3.424 4.766-6.56 14.727-8.246 22.48a1.315 1.315 0 0 1-2.593 0c-1.686-7.753-4.822-17.714-8.245-22.48-3.709-5.164-11.795-9.86-17.5-12.026a1.291 1.291 0 0 1 0-2.522c5.705-2.167 13.791-6.863 17.5-12.026 3.423-4.768 6.559-14.728 8.245-22.481"/></svg>
